HIERARCHY
ROOT joint_0
{
	OFFSET 0.000000 0.000000 0.000000
	CHANNELS 6 Xposition Yposition Zposition Zrotation Yrotation Xrotation 
	JOINT joint_1
	{
		OFFSET 1.363060 -1.794630 0.839290
		CHANNELS 3 Zrotation Yrotation Xrotation
		JOINT joint_2
		{
			OFFSET 2.448110 -6.726130 0.000000
			CHANNELS 3 Zrotation Yrotation Xrotation
			JOINT joint_3
			{
				OFFSET 2.562200 -7.039590 0.000000
				CHANNELS 3 Zrotation Yrotation Xrotation
				JOINT joint_4
				{
					OFFSET 0.157640 -0.433110 2.322550
					CHANNELS 3 Zrotation Yrotation Xrotation
					End Site
					{
						OFFSET 0.000000 0.000000 0.000000
					}
				}
			}
		}
	}
	JOINT joint_5
	{
		OFFSET -1.305520 -1.794630 0.839290
		CHANNELS 3 Zrotation Yrotation Xrotation
		JOINT joint_6
		{
			OFFSET -2.542530 -6.985550 0.000000
			CHANNELS 3 Zrotation Yrotation Xrotation
			JOINT joint_7
			{
				OFFSET -2.568260 -7.056230 0.000000
				CHANNELS 3 Zrotation Yrotation Xrotation
				JOINT joint_8
				{
					OFFSET -0.164730 -0.452590 2.363150
					CHANNELS 3 Zrotation Yrotation Xrotation
					End Site
					{
						OFFSET 0.000000 0.000000 0.000000
					}
				}
			}
		}
	}
	JOINT joint_9
	{
		OFFSET 0.028270 2.035590 -0.193380
		CHANNELS 3 Zrotation Yrotation Xrotation
		JOINT joint_10
		{
			OFFSET 0.056720 2.048850 -0.042750
			CHANNELS 3 Zrotation Yrotation Xrotation
			JOINT joint_11
			{
				OFFSET -0.054170 1.746240 0.172020
				CHANNELS 3 Zrotation Yrotation Xrotation
				JOINT joint_12
				{
					OFFSET 0.104070 1.761360 -0.123970
					CHANNELS 3 Zrotation Yrotation Xrotation
					End Site
					{
						OFFSET 0.000000 0.000000 0.000000
					}
				}
			}
			JOINT joint_13
			{
				OFFSET 3.362410 1.200890 -0.311210
				CHANNELS 3 Zrotation Yrotation Xrotation
				JOINT joint_14
				{
					OFFSET 4.983000 -0.000000 -0.000000
					CHANNELS 3 Zrotation Yrotation Xrotation
					JOINT joint_15
					{
						OFFSET 3.483560 -0.000000 -0.000000
						CHANNELS 3 Zrotation Yrotation Xrotation
						JOINT joint_16
						{
							OFFSET 0.000000 0.000000 0.000000
							CHANNELS 3 Zrotation Yrotation Xrotation
							End Site
							{
								OFFSET 0.000000 0.000000 0.000000
							}
						}
					}
				}
			}
			JOINT joint_17
			{
				OFFSET -3.136600 1.374050 -0.404650
				CHANNELS 3 Zrotation Yrotation Xrotation
				JOINT joint_18
				{
					OFFSET -5.241900 -0.000000 -0.000000
					CHANNELS 3 Zrotation Yrotation Xrotation
					JOINT joint_19
					{
						OFFSET -3.444170 -0.000000 -0.000000
						CHANNELS 3 Zrotation Yrotation Xrotation
						JOINT joint_20
						{
							OFFSET 0.000000 0.000000 0.000000
							CHANNELS 3 Zrotation Yrotation Xrotation
							End Site
							{
								OFFSET 0.000000 0.000000 0.000000
							}
						}
					}
				}
			}
		}
	}
}
MOTION
Frames: 6
Frame Time: 0.031667
-9.504039 13.213994 1.398569 -12.802456 78.930977 -3.364663 -14.205269 2.629210 -29.175648 -1.959509 11.798162 14.713317 47.901240 5.630815 -37.868116 1.928216 3.320066 11.952745 5.856156 -0.849576 -27.819478 3.384351 -20.224585 57.266376 -77.547256 -1.577402 -34.047533 -9.719890 -8.024058 28.943760 10.259963 -4.030253 3.823689 -5.421142 -12.436897 -23.033879 9.157446 -1.044063 37.033224 -0.033073 -9.998081 -23.755400 -81.079728 -73.667845 80.408675 21.994321 -43.683711 -16.804272 -5.021876 15.039124 73.738135 -7.210589 -0.114421 0.327245 141.476550 75.965514 81.193307 -27.988392 52.827063 -1.666692 -3.341232 2.237970 20.030781 7.270044 0.324452 0.097560 
-9.044865 13.234505 1.380784 -15.252708 78.662460 -5.019760 -25.698705 -5.408096 -72.009346 -16.177139 29.309325 47.213160 -11.577008 11.288860 -0.723658 3.927228 2.462747 8.279915 17.344155 16.165152 -31.407969 0.718758 -30.905397 70.299073 -41.900704 -11.608441 -20.483210 -9.568386 -6.868799 24.233313 18.554245 2.674484 13.714984 -14.813260 -0.509548 -14.815051 35.027150 6.138021 24.244108 3.569729 -9.954546 -22.513914 27.297198 -75.637877 169.203716 49.468038 -53.845841 -28.217301 12.101959 3.274010 6.942568 -7.291269 -0.099911 0.209169 -42.519580 62.074043 -128.892759 -23.120003 59.080993 15.786809 -21.581434 -2.234261 -23.170175 7.356393 0.197846 0.106239 
-8.582102 13.253814 1.375227 -16.009581 78.725639 -5.274573 -25.836401 -12.985924 -84.542306 -6.746005 24.560255 56.783256 -51.542766 3.188036 6.930034 4.596982 0.583964 2.438464 29.811962 10.109819 -38.722924 -5.733492 -32.907281 74.601116 3.245751 6.161816 -29.008022 -8.332851 -6.258328 20.845582 10.290593 6.810608 16.021249 -8.607363 -7.219982 -17.504757 23.739975 2.564129 28.111696 5.761054 -10.112483 -23.614947 -38.515976 -55.203703 49.511690 37.421811 -48.594518 -26.328709 7.698297 1.446155 11.796947 -7.245379 -0.131627 0.149908 69.593699 59.007944 93.086667 -40.081654 72.102482 -24.475906 -14.173756 -6.538566 -20.331591 7.343194 0.135947 0.128915 
-8.108243 13.300405 1.390545 -14.743326 79.047958 -3.570675 -5.974121 -8.375770 -63.783305 -13.088791 22.340417 48.493267 -50.284218 -1.258711 -9.145479 4.035715 -0.661341 -1.311487 16.627983 14.304340 -20.621803 -4.453475 -21.545424 55.861440 -15.741008 11.640527 -22.911917 -5.883206 -7.806103 23.345288 14.799106 4.644071 14.067966 -5.147083 -6.157724 -15.721359 9.331737 0.801014 40.343568 2.620774 -10.414353 -27.313713 -46.264805 -61.580910 16.349492 29.423205 -47.795263 -14.484417 5.192933 10.321066 1.396160 -7.212080 -0.119885 0.078731 66.584236 53.914313 80.545559 -51.583996 68.247510 -27.644805 -22.495920 -5.424249 -13.986676 7.336745 0.074279 0.093081 
-7.625435 13.354099 1.398971 -12.545284 79.557106 -1.045868 -15.086208 -0.262522 -56.998929 -16.293100 20.493395 40.078710 -40.013755 -6.756582 -8.897509 2.822295 -0.075751 0.422058 15.965787 7.142823 -14.034840 10.155636 -12.710532 42.058608 1.737268 20.278768 -8.735994 -3.055255 -9.931221 27.464951 -1.784003 2.645617 1.121791 0.032480 -16.489564 -11.962262 -1.061418 -1.826948 42.422534 2.831752 -10.666134 -30.446371 -36.497731 -67.732227 12.101915 26.786260 -49.624497 -14.598445 5.709036 0.186437 11.340256 -7.193276 -0.123173 0.045045 59.712908 60.120814 65.559905 -30.847644 57.895313 -25.414022 -10.086104 -1.681804 -1.363793 7.323915 0.036564 0.059368 
-7.136471 13.432327 1.396847 -12.834898 80.075310 -0.522212 -9.598900 9.347185 -65.003040 -12.875025 14.126857 37.634967 -17.843967 -0.370049 -4.452455 1.992120 1.871342 5.784328 7.625258 -10.920999 -14.219557 1.957787 -18.228925 44.198120 5.039026 15.473736 2.741728 -1.100187 -14.218234 36.966558 4.443295 3.504741 2.346334 -8.874028 -5.049719 -9.519940 14.029746 2.264041 31.255782 4.517565 -10.091267 -29.968073 -36.569844 -72.293932 6.203801 17.681507 -48.631152 -7.826984 1.301328 -2.658566 1.917202 -7.254224 -0.117692 0.015936 42.544152 59.754224 62.266170 -22.857199 56.620301 -18.638002 -19.540845 -9.787888 -7.978534 7.363424 0.005265 0.026565 
